<svg xmlns="http://www.w3.org/2000/svg" width="50" height="43.75" viewBox="0 0 50 43.75">
  <path id="application" d="M9.375,44.5A3.125,3.125,0,1,1,12.5,41.375,3.122,3.122,0,0,1,9.375,44.5Zm12.5-3.125A3.125,3.125,0,1,0,18.75,44.5,3.122,3.122,0,0,0,21.875,41.375Zm9.375,0A3.125,3.125,0,1,0,28.125,44.5,3.122,3.122,0,0,0,31.25,41.375ZM50,36.688V71.063a4.689,4.689,0,0,1-4.687,4.688H4.688A4.689,4.689,0,0,1,0,71.063V36.688A4.689,4.689,0,0,1,4.688,32H45.313A4.689,4.689,0,0,1,50,36.688ZM46.875,50.75H3.125V71.063a1.567,1.567,0,0,0,1.563,1.563H45.313a1.567,1.567,0,0,0,1.563-1.562Zm0-3.125V36.688a1.567,1.567,0,0,0-1.562-1.562H4.688a1.567,1.567,0,0,0-1.562,1.563V47.625Z" transform="translate(0 -32)" fill="#f7a51c"/>
</svg>
