<svg xmlns="http://www.w3.org/2000/svg" width="55" height="55" viewBox="0 0 55 55">
  <path id="goal" d="M33.826,18.062l2.657,5.946L26.245,34.246a1.774,1.774,0,1,0,2.508,2.508L38.991,26.516l5.946,2.657a2.278,2.278,0,0,0,2.333-.55l7.06-7.06a2.28,2.28,0,0,0-.892-3.775l-6.172-2.057L45.21,9.56a2.276,2.276,0,0,0-3.772-.892l-7.06,7.06A2.282,2.282,0,0,0,33.826,18.062ZM42.5,12.63,43.9,16.853l.561,1.683,1.683.561,4.224,1.408-.731.744-4.251,4.238-5.443-2.432-2.432-5.443L42.5,12.63ZM53.717,27.195l-2.9,2.9A24.052,24.052,0,1,1,32.9,12.186l2.9-2.9A27.5,27.5,0,1,0,53.717,27.195ZM30.461,19.183a5.883,5.883,0,0,1-.3-1.6,18.168,18.168,0,0,0-2.664-.267A18.185,18.185,0,1,0,45.685,35.5a18.067,18.067,0,0,0-.272-2.7,5.816,5.816,0,0,1-1.6-.259c-.235-.079.113.069-2.294-1.006a14.442,14.442,0,0,1,.615,3.966A14.637,14.637,0,1,1,27.5,20.863a14.442,14.442,0,0,1,3.966.615A24.685,24.685,0,0,1,30.461,19.183ZM27.5,26.629a9.185,9.185,0,1,0,8.748,7.65l-4.984,4.984h0a5.321,5.321,0,1,1-7.525-7.525h0l4.984-4.984a8.858,8.858,0,0,0-1.221-.123Z" transform="translate(0 -8)" fill="#f7a51c"/>
</svg>
