<svg xmlns="http://www.w3.org/2000/svg" width="55" height="55" viewBox="0 0 55 55">
  <path id="innovation" d="M54.314,2.078A1.727,1.727,0,0,0,52.986.752,39.433,39.433,0,0,0,44.009,0C32.865,0,26.157,5.919,21.137,13.75H10.244A5.157,5.157,0,0,0,5.638,16.6L.329,27.209a2.578,2.578,0,0,0,2.309,3.729h9.948l-1.138,2.3a3.41,3.41,0,0,0,.661,3.935l5.777,5.771a3.438,3.438,0,0,0,2.429,1.013,3.393,3.393,0,0,0,1.5-.353l2.3-1.137v9.955A2.587,2.587,0,0,0,26.694,55a2.542,2.542,0,0,0,1.142-.272l10.6-5.306a5.147,5.147,0,0,0,2.847-4.608v-10.9c7.819-5.025,13.769-11.758,13.769-22.85a39.009,39.009,0,0,0-.742-8.987ZM13.8,27.5H4.027l4.683-9.367a1.729,1.729,0,0,1,1.534-.945h9.151C17.9,20.2,15.987,24.063,14.285,27.5ZM37.852,44.814a1.719,1.719,0,0,1-.952,1.534l-9.346,4.677V40.764c3.438-1.7,7.286-3.608,10.3-5.107Zm1.573-13.78c-4.244,2.125-14.6,7.246-19.113,9.479L14.53,34.761c2.242-4.536,7.362-14.888,9.479-19.14C29.4,7.2,35.577,3.438,44.009,3.438a39.133,39.133,0,0,1,7.158.461,38.1,38.1,0,0,1,.449,7.165C51.618,19.451,47.858,25.616,39.425,31.034Zm.161-22.44a6.875,6.875,0,1,0,6.876,6.875,6.875,6.875,0,0,0-6.876-6.875Zm0,10.313a3.438,3.438,0,1,1,3.438-3.437A3.438,3.438,0,0,1,39.586,18.906Z" transform="translate(-0.058)" fill="#f7a51c"/>
</svg>
