<svg id="linkedin_1_" data-name="linkedin(1)" xmlns="http://www.w3.org/2000/svg" width="15.844" height="15.844" viewBox="0 0 15.844 15.844">
  <path id="Path_58" data-name="Path 58" d="M18.725,18.418h0V12.607c0-2.843-.612-5.033-3.935-5.033a3.45,3.45,0,0,0-3.107,1.708H11.64V7.839H8.489V18.417H11.77V13.18c0-1.379.261-2.713,1.969-2.713,1.683,0,1.708,1.574,1.708,2.8v5.15Z" transform="translate(-2.885 -2.574)" fill="#fff"/>
  <path id="Path_59" data-name="Path 59" d="M.4,7.977H3.681V18.555H.4Z" transform="translate(-0.135 -2.711)" fill="#fff"/>
  <path id="Path_60" data-name="Path 60" d="M1.9,0a1.912,1.912,0,1,0,1.9,1.9A1.9,1.9,0,0,0,1.9,0Z" fill="#fff"/>
</svg>
