<svg xmlns="http://www.w3.org/2000/svg" width="10.778" height="16.165" viewBox="0 0 10.778 16.165">
  <g id="next" transform="translate(0 0)">
    <g id="Group_1997" data-name="Group 1997" transform="translate(0 0)">
      <g id="Group_1996" data-name="Group 1996" transform="translate(0 0)">
        <path id="Path_1320" data-name="Path 1320" d="M233.988,54.193,228.6,48.8a2.694,2.694,0,1,0-3.81,3.81l3.484,3.484-3.484,3.484a2.694,2.694,0,1,0,3.81,3.81L233.988,58a2.693,2.693,0,0,0,0-3.81Zm-.952,2.857-5.389,5.389a1.379,1.379,0,0,1-1.9,0,1.348,1.348,0,0,1,0-1.9l4.436-4.436-4.436-4.436a1.347,1.347,0,0,1,1.9-1.906l5.389,5.389a1.348,1.348,0,0,1,0,1.906Z" transform="translate(-224 -48.016)" fill="#fff"/>
      </g>
    </g>
  </g>
</svg>
