<svg id="pre" xmlns="http://www.w3.org/2000/svg" width="10.778" height="16.165" viewBox="0 0 10.778 16.165">
  <g id="Group_1997" data-name="Group 1997" transform="translate(0 0)">
    <g id="Group_1996" data-name="Group 1996" transform="translate(0 0)">
      <path id="Path_1320" data-name="Path 1320" d="M224.789,54.193l5.389-5.389a2.694,2.694,0,1,1,3.81,3.81L230.5,56.1l3.484,3.484a2.694,2.694,0,1,1-3.81,3.81L224.789,58a2.693,2.693,0,0,1,0-3.81Zm.952,2.857,5.389,5.389a1.379,1.379,0,0,0,1.9,0,1.348,1.348,0,0,0,0-1.9L228.6,56.1l4.436-4.436a1.347,1.347,0,0,0-1.9-1.906l-5.389,5.389a1.348,1.348,0,0,0,0,1.906Z" transform="translate(-224 -48.016)" fill="#fff"/>
    </g>
  </g>
</svg>
