<svg xmlns="http://www.w3.org/2000/svg" width="55.797" height="55.797" viewBox="0 0 55.797 55.797">
  <path id="user-friendly" d="M48.822,0H6.975A6.981,6.981,0,0,0,0,6.975V38.36a6.981,6.981,0,0,0,6.975,6.975H17.436v9.154A1.3,1.3,0,0,0,18.744,55.8a1.251,1.251,0,0,0,.774-.262l13.611-10.2H48.822A6.981,6.981,0,0,0,55.8,38.36V6.975A6.981,6.981,0,0,0,48.822,0Zm3.487,38.36a3.5,3.5,0,0,1-3.487,3.487H31.963l-.926.7L20.924,50.13V41.847H6.975A3.5,3.5,0,0,1,3.487,38.36V6.975A3.5,3.5,0,0,1,6.975,3.487H48.822a3.5,3.5,0,0,1,3.487,3.487ZM36.159,25.86a10.923,10.923,0,0,1-16.521.011,1.743,1.743,0,1,0-2.648,2.267,14.418,14.418,0,0,0,21.828-.011,1.747,1.747,0,1,0-2.659-2.267ZM20.924,20.052a2.615,2.615,0,1,0-2.615-2.615A2.609,2.609,0,0,0,20.924,20.052Zm13.949,0a2.615,2.615,0,1,0-2.615-2.615A2.609,2.609,0,0,0,34.873,20.052Z" fill="#f7a51c"/>
</svg>
