<svg xmlns="http://www.w3.org/2000/svg" width="36" height="36" viewBox="0 0 36 36">
  <path id="zoom" d="M21.938-17.719v1.688a.814.814,0,0,1-.246.6.814.814,0,0,1-.6.246H16.313v4.781a.814.814,0,0,1-.246.6.814.814,0,0,1-.6.246H13.781a.814.814,0,0,1-.6-.246.814.814,0,0,1-.246-.6v-4.781H8.156a.814.814,0,0,1-.6-.246.814.814,0,0,1-.246-.6v-1.687a.814.814,0,0,1,.246-.6.814.814,0,0,1,.6-.246h4.781v-4.781a.814.814,0,0,1,.246-.6.814.814,0,0,1,.6-.246h1.688a.814.814,0,0,1,.6.246.814.814,0,0,1,.246.6v4.781h4.781a.814.814,0,0,1,.6.246A.814.814,0,0,1,21.938-17.719ZM35.789,2.672,34.172,4.219a.874.874,0,0,1-.633.281.668.668,0,0,1-.562-.281L24.469-4.289a.668.668,0,0,1-.281-.562v-.984A15.1,15.1,0,0,1,19.758-3.2a14.141,14.141,0,0,1-5.133.949A14.2,14.2,0,0,1,7.277-4.219,14.776,14.776,0,0,1,1.969-9.527,14.2,14.2,0,0,1,0-16.875a14.2,14.2,0,0,1,1.969-7.348,14.776,14.776,0,0,1,5.309-5.309A14.2,14.2,0,0,1,14.625-31.5a14.2,14.2,0,0,1,7.348,1.969,14.776,14.776,0,0,1,5.309,5.309,14.2,14.2,0,0,1,1.969,7.348,14.141,14.141,0,0,1-.949,5.133,15.1,15.1,0,0,1-2.637,4.43h.984a.81.81,0,0,1,.563.281l8.578,8.508A.76.76,0,0,1,36,2.039,1.028,1.028,0,0,1,35.789,2.672ZM25.875-16.875A11,11,0,0,0,24.363-22.5a11.17,11.17,0,0,0-4.113-4.113,11,11,0,0,0-5.625-1.512A11,11,0,0,0,9-26.613,11.17,11.17,0,0,0,4.887-22.5a11,11,0,0,0-1.512,5.625A11,11,0,0,0,4.887-11.25,11.17,11.17,0,0,0,9-7.137a11,11,0,0,0,5.625,1.512A11,11,0,0,0,20.25-7.137a11.17,11.17,0,0,0,4.113-4.113A11,11,0,0,0,25.875-16.875Z" transform="translate(0 31.5)" fill="#353643"/>
</svg>
