<svg xmlns="http://www.w3.org/2000/svg" width="18.25" height="12.086" viewBox="0 0 18.25 12.086">
  <path id="Path_55" data-name="Path 55" d="M.164.711.711.164A.3.3,0,0,0,.793-.055.4.4,0,0,0,.711-.3L-3.527-4.539H11.8a.316.316,0,0,0,.232-.1.316.316,0,0,0,.1-.232v-.766a.316.316,0,0,0-.1-.232.316.316,0,0,0-.232-.1H-3.527L.711-10.2a.4.4,0,0,0,.082-.246.3.3,0,0,0-.082-.219l-.547-.547a.4.4,0,0,0-.246-.082.3.3,0,0,0-.219.082L-6.016-5.469a.26.26,0,0,0-.109.219.26.26,0,0,0,.109.219L-.3.711A.3.3,0,0,0-.082.793.4.4,0,0,0,.164.711Z" transform="translate(12.125 0.793) rotate(180)" fill="#F7A51C"/>
</svg>
